<svg fill="none" height="31" viewBox="0 0 131 31" width="131" xmlns="http://www.w3.org/2000/svg"><g fill="#25d366"><path d="m49.0664 17.9283h-.0392l-2.4653-9.95174h-2.9705l-2.5166 9.83114h-.0407l-2.2768-9.82511h-3.1665l3.8194 14.43301h3.2132l2.4035-9.8235h.0407l2.4457 9.8235h3.1529l3.8736-14.43301h-3.1121zm15.1523-5.0633c-.3038-.387-.7043-.6871-1.1611-.87-.603-.2275-1.2451-.3335-1.8893-.3122-.5774.0089-1.145.1508-1.6586.4147-.586.2937-1.0719.7543-1.3963 1.3239h-.0603v-5.43881h-2.8649v14.43301h2.8649v-5.4779c0-1.0646.1749-1.8296.5247-2.295.3499-.4654.9158-.6976 1.6979-.6966.686 0 1.1655.2126 1.4339.6378s.4041 1.0676.4041 1.9301v5.9016h2.8649v-6.4279c.0045-.5939-.0532-1.1867-.1719-1.7687-.0932-.4893-.294-.9519-.588-1.354zm11.8214 7.224v-5.4282c0-.6343-.1412-1.1434-.4237-1.5274-.2834-.3867-.6579-.6974-1.0901-.9047-.4662-.2211-.9644-.3671-1.4762-.4328-.5291-.0734-1.0626-.1107-1.5968-.1116-.5807-.0006-1.1601.0565-1.7295.1704-.5445.1034-1.0675.2982-1.547.576-.4545.2649-.8415.6313-1.1309 1.0706-.3156.5042-.4905 1.0836-.5067 1.6782h2.8649c.0543-.5654.2443-.971.567-1.2063.3227-.2352.775-.3679 1.342-.3679.2396-.0011.479.0156.7162.0498.207.0275.4065.0962.5865.202.1705.1029.3101.2498.4041.4253.1113.2292.1631.4828.1508.7373.0148.1257-.0014.2531-.0472.371-.0457.118-.1196.2231-.2151.306-.228.1732-.4918.2932-.7721.3513-.3652.0889-.7367.1499-1.1112.1825-.4192.0412-.8434.095-1.2726.1613-.4324.0681-.8608.1598-1.2832.2744-.4045.1044-.7876.2784-1.1324.5142-.338.2392-.6153.5542-.8097.9198-.2239.4551-.3312.9588-.3121 1.4656-.0125.4793.0807.9555.2729 1.3948.1709.3788.4293.7116.7539.971.3355.2621.72.4543 1.1309.5655.4542.125.9236.1864 1.3947.1824.6433.0001 1.283-.0949 1.8984-.2819.6153-.1869 1.1723-.5285 1.6179-.9922.0127.1732.0364.3454.0709.5157.0331.1675.0769.3327.1312.4945h2.9101c-.1608-.2999-.2574-.6301-.2835-.9695-.0525-.4504-.0766-.9036-.0724-1.3571zm-2.8648-1.7189c-.0032.2165-.0198.4325-.0498.6469-.0378.2816-.1306.5532-.2729.7991-.1671.2812-.4039.5144-.6876.677-.3086.189-.7464.2835-1.3133.2835-.2236.0003-.4468-.0204-.6665-.0618-.2003-.0341-.3923-.1063-.5654-.2126-.1626-.1012-.2953-.2438-.3845-.4132-.1-.2006-.1487-.4228-.1418-.6468-.0082-.2309.0405-.4603.1418-.668.0908-.1707.2185-.3191.3739-.4342.1658-.1203.3502-.2125.5458-.273.2085-.0673.421-.1212.6364-.1613.2291-.0392.4523-.0754.686-.101.2337-.0257.4524-.0619.6574-.1011.1986-.0377.3945-.088.5866-.1507.1666-.0516.3207-.1374.4523-.2518zm8.2252-9.5401h-2.8649v3.1348h-1.7461v1.921h1.7371v6.1656c-.0189.4393.0713.8765.2623 1.2726.1635.3139.4123.5752.7178.7539.3264.183.6846.3027 1.0555.3528.4178.0618.8397.0921 1.262.0905.285 0 .573 0 .8701-.0196.2708-.0103.5407-.0375.8082-.0814v-2.2286c-.1403.0297-.2823.0503-.4253.0618-.1507.0136-.3015.0211-.4644.0211-.484 0-.8082-.0829-.971-.2443-.1629-.1613-.2413-.484-.2413-.9695v-5.1749h2.102v-1.921h-2.1065zm11.8622 9.0048c-.1882-.3278-.4455-.6108-.7539-.8293-.3239-.2293-.6794-.4101-1.0555-.5368-.3966-.1327-.8052-.2473-1.2229-.3423-.4176-.095-.8006-.1824-1.1912-.2623-.3522-.071-.7001-.1621-1.0419-.2729-.2687-.0824-.5187-.2166-.7358-.3951-.0918-.0758-.1651-.1716-.2142-.28-.0492-.1085-.0728-.2267-.0693-.3457-.0108-.1842.0449-.3661.1568-.5127.1063-.1301.2416-.2333.3951-.3016.164-.0689.3372-.1131.5142-.1312.1754-.0156.3516-.0221.5277-.0196.4624-.0117.9208.0886 1.336.2926.3754.1945.585.5684.6242 1.1218h2.7292c-.0294-.5691-.1999-1.122-.4961-1.6089-.265-.4142-.6208-.7628-1.0404-1.0193-.439-.2646-.9214-.4494-1.4249-.5458-.5415-.109-1.0927-.163-1.6451-.1614-.5563-.0006-1.1115.0499-1.6586.1508-.5115.0911-1.0036.2691-1.455.5263-.4282.2453-.7864.5962-1.0405 1.0193-.2811.5062-.4173 1.0801-.3935 1.6586-.0129.4061.0851.808.2835 1.1625.1884.3165.4462.5861.7539.7886.3267.2166.6819.3866 1.0555.5052.3965.1281.8052.2397 1.2213.3332.8134.1576 1.6142.3743 2.396.6484.573.2141.8595.5373.8595.9695.0089.2262-.055.4493-.1825.6363-.1191.1664-.2736.3044-.4523.4041-.1888.1038-.3922.1785-.6032.2217-.2089.0468-.4222.071-.6363.0723-.2755.0006-.5501-.0334-.8172-.101-.2496-.062-.4861-.1682-.6982-.3136-.2034-.1433-.3728-.3297-.496-.5458-.1328-.2451-.1988-.5206-.1915-.7992h-2.7383c.0029.6145.1666 1.2176.475 1.7491.2792.4544.6595.8383 1.1113 1.1218.4757.2914.9996.4957 1.547.6032.5841.1224 1.1794.1836 1.7762.1824.5873.0006 1.1732-.057 1.7491-.1719.5419-.1041 1.0594-.3087 1.526-.6031.481-.2982.8733-.7198 1.1361-1.221s.3865-1.0636.3581-1.6288c.0135-.4228-.0837-.8417-.2819-1.2154zm5.6981-9.85522-5.4553 14.43302h3.1921l1.1324-3.2132h5.395l1.09 3.2132h3.296l-5.399-14.43001zm-.3015 8.85402 1.8807-5.2955h.039l1.82 5.2955zm18.8627-3.4529c-.394-.5161-.898-.9375-1.476-1.2334-.658-.3251-1.386-.4845-2.12-.4645-.614-.0078-1.222.1231-1.779.383-.554.2737-1.016.7042-1.327 1.238h-.041v-1.339h-2.729v14.1104h2.865v-4.9518h.039c.337.5003.801.9012 1.345 1.1611.559.2658 1.17.4009 1.788.395.697.0133 1.387-.1419 2.01-.4523.561-.2872 1.052-.695 1.436-1.1942.392-.5136.683-1.0962.859-1.7175.189-.6568.284-1.337.282-2.0205.003-.7206-.092-1.4383-.282-2.1336-.174-.6436-.469-1.248-.87-1.7807zm-1.838 5.0738c-.071.3746-.212.7326-.414 1.0555-.343.481-.848.8211-1.423.957-.574.136-1.179.0584-1.7-.2181-.315-.1806-.582-.434-.778-.7389-.204-.3233-.347-.6809-.424-1.0555-.088-.4046-.132-.8177-.131-1.2319-.001-.421.039-.8412.119-1.2545.073-.3796.214-.7429.416-1.0721.194-.3077.457-.5658.768-.7539.358-.2096.767-.3142 1.182-.3015.408-.011.81.0935 1.161.3015.315.1925.581.4551.778.7675.208.3316.355.6977.434 1.0811.089.4057.133.8198.131 1.235.003.4123-.035.8239-.113 1.2288zm14.145-3.2855c-.172-.6465-.467-1.2537-.87-1.7883-.393-.516-.897-.9374-1.474-1.2334-.659-.3248-1.387-.4842-2.122-.4645-.614-.0073-1.221.1236-1.778.383-.554.2741-1.016.7045-1.328 1.238h-.039v-1.339h-2.735v14.1104h2.864v-4.9518h.041c.336.4999.8.9007 1.344 1.1611.558.2658 1.17.4009 1.788.395.697.0133 1.387-.1419 2.011-.4523.561-.2872 1.051-.6951 1.434-1.1942.392-.5136.684-1.0962.86-1.7175.19-.6566.285-1.3369.283-2.0205.006-.7177-.086-1.4329-.273-2.126zm-2.714 3.2855c-.07.3748-.211.7329-.414 1.0555-.212.3242-.501.5905-.842.7748-.34.1843-.722.2809-1.109.2809s-.768-.0966-1.109-.2809c-.34-.1843-.629-.4506-.841-.7748-.203-.3236-.347-.6811-.424-1.0555-.087-.4047-.131-.8177-.131-1.2319-.001-.4211.039-.8412.121-1.2545.078-.3808.225-.7442.434-1.0721.194-.307.457-.565.767-.7539.358-.2096.768-.3142 1.182-.3015.408-.0112.811.0934 1.161.3015.316.1924.583.4551.78.7675.208.3316.355.6977.434 1.0811.089.4057.133.8198.131 1.235-.002.4128-.045.8244-.128 1.2288z"/><path d="m30.3139 14.8011c-.14-3.8314-1.7545-7.46054-4.5066-10.12974s-6.4289-4.172073-10.2627-4.194793h-.0724c-2.5818-.001918-5.1195.668373-7.36363 1.944913-2.24408 1.27654-4.11715 3.11534-5.4349 5.33547-1.31775 2.22014-2.03477 4.74515-2.080515 7.32645-.045744 2.5814.581365 5.1301 1.819625 7.3956l-1.31484 7.8679c-.00214.0161-.00082.0325.00388.0481.00469.0156.01266.03.02336.0423s.02389.0221.03869.0289.03088.0103.04716.0104h.02262l7.78196-1.731c2.01069.9653 4.21259 1.4662 6.44299 1.4656h.4252c1.962-.056 3.8935-.5 5.6829-1.3064 1.7895-.8064 3.4015-1.9592 4.7431-3.3919s2.3862-3.1169 3.0734-4.9555c.6872-1.8385 1.0035-3.7949.9307-5.7563zm-14.504 12.8241c-.1176 0-.2352 0-.3513 0-1.9712.0025-3.9142-.4692-5.66494-1.3751l-.39807-.2081-5.27744 1.247.97406-5.3393-.22617-.383c-1.08025-1.8417-1.66211-3.9331-1.68826-6.0682-.02615-2.135.5043-4.2401 1.53911-6.10775 1.03482-1.86769 2.53829-3.4336 4.36235-4.54351 1.82406-1.10992 3.90576-1.72554 6.04016-1.78623h.3573c3.2225.00955 6.3122 1.28463 8.6035 3.55053 2.2913 2.26589 3.6008 5.34126 3.6463 8.56336.0454 3.2222-1.1767 6.3332-3.4031 8.6629-2.2265 2.3297-5.279 3.6915-8.4999 3.792z"/><path d="m10.2894 8.16663c-.1837.00359-.36484.044-.53267.11885s-.31894.18262-.44437.31692c-.35435.36339-1.345 1.23794-1.4023 3.0745-.05729 1.8365 1.22588 3.6535 1.40531 3.9083.17944.2548 2.45323 4.222 6.19873 5.8308 2.2015.9485 3.1665 1.1113 3.7922 1.1113.2579 0 .4524-.0271.6559-.0392.6861-.0422 2.2347-.8353 2.5724-1.6978.3378-.8625.3604-1.6164.2714-1.7672-.0889-.1508-.3332-.2594-.7011-.4524s-2.1728-1.158-2.5121-1.2937c-.1258-.0586-.2612-.0938-.3996-.104-.0901.0047-.1777.0313-.2552.0776-.0775.0462-.1426.1107-.1896.1877-.3015.3755-.9936 1.1912-1.2259 1.4265-.0507.0584-.1132.1055-.1833.1383-.0701.0327-.1464.0503-.2238.0517-.1426-.0063-.2821-.0439-.4086-.1101-1.0933-.4643-2.0901-1.1292-2.9388-1.9602-.793-.7816-1.4658-1.6764-1.9964-2.6553-.205-.38 0-.576.187-.7539.187-.178.3875-.4237.5805-.6364.1584-.1816.2904-.3846.3921-.6031.0526-.1014.0792-.2143.0773-.3285-.0018-.1143-.032-.2262-.0879-.3259-.0889-.19-.7539-2.05819-1.066-2.80759-.2533-.64083-.5549-.66194-.8188-.68154-.2171-.01508-.4659-.02262-.7147-.03016h-.0317"/></g></svg>